<svg width="107" height="107" viewBox="0 0 107 107" fill="none" xmlns="http://www.w3.org/2000/svg">
<circle cx="53.5" cy="53.5" r="53.5" fill="#3333B2"/>
<path fill-rule="evenodd" clip-rule="evenodd" d="M58.4369 30.5C58.4369 27.4624 55.9745 25 52.9369 25C49.8993 25 47.4369 27.4624 47.4369 30.5V40.437C47.4369 44.8553 43.8552 48.437 39.4369 48.437H29.5C26.4624 48.437 24 50.8994 24 53.937C24 56.9746 26.4624 59.437 29.5 59.437H39.4369C43.8552 59.437 47.4369 63.0187 47.4369 67.437V77.3737C47.4369 80.4113 49.8993 82.8737 52.9369 82.8737C55.9745 82.8737 58.4369 80.4113 58.4369 77.3737V67.437C58.4369 63.0187 62.0186 59.437 66.4369 59.437H76.3737C79.4113 59.437 81.8737 56.9746 81.8737 53.937C81.8737 50.8994 79.4113 48.437 76.3737 48.437H66.4369C62.0186 48.437 58.4369 44.8553 58.4369 40.437V30.5Z" fill="#D9D9D9"/>
</svg>
